<svg id="visual" viewBox="0 0 960 540" width="960" height="540" xmlns="http://www.w3.org/2000/svg" xmlns:xlink="http://www.w3.org/1999/xlink" version="1.1"><rect x="0" y="0" width="960" height="540" fill="#170A07"></rect><path d="M0 380L22.8 369.2C45.7 358.3 91.3 336.7 137 330.5C182.7 324.3 228.3 333.7 274 341.2C319.7 348.7 365.3 354.3 411.2 352.5C457 350.7 503 341.3 548.8 347C594.7 352.7 640.3 373.3 686 371.2C731.7 369 777.3 344 823 333.5C868.7 323 914.3 327 937.2 329L960 331L960 541L937.2 541C914.3 541 868.7 541 823 541C777.3 541 731.7 541 686 541C640.3 541 594.7 541 548.8 541C503 541 457 541 411.2 541C365.3 541 319.7 541 274 541C228.3 541 182.7 541 137 541C91.3 541 45.7 541 22.8 541L0 541Z" fill="#fa7268"></path><path d="M0 378L22.8 379.2C45.7 380.3 91.3 382.7 137 383.2C182.7 383.7 228.3 382.3 274 383C319.7 383.7 365.3 386.3 411.2 388.5C457 390.7 503 392.3 548.8 394C594.7 395.7 640.3 397.3 686 391.5C731.7 385.7 777.3 372.3 823 373.3C868.7 374.3 914.3 389.7 937.2 397.3L960 405L960 541L937.2 541C914.3 541 868.7 541 823 541C777.3 541 731.7 541 686 541C640.3 541 594.7 541 548.8 541C503 541 457 541 411.2 541C365.3 541 319.7 541 274 541C228.3 541 182.7 541 137 541C91.3 541 45.7 541 22.8 541L0 541Z" fill="#f48c68"></path><path d="M0 459L22.8 450.5C45.7 442 91.3 425 137 423.5C182.7 422 228.3 436 274 444.5C319.7 453 365.3 456 411.2 451.3C457 446.7 503 434.3 548.8 434C594.7 433.7 640.3 445.3 686 449.5C731.7 453.7 777.3 450.3 823 443.8C868.7 437.3 914.3 427.7 937.2 422.8L960 418L960 541L937.2 541C914.3 541 868.7 541 823 541C777.3 541 731.7 541 686 541C640.3 541 594.7 541 548.8 541C503 541 457 541 411.2 541C365.3 541 319.7 541 274 541C228.3 541 182.7 541 137 541C91.3 541 45.7 541 22.8 541L0 541Z" fill="#eca371"></path><path d="M0 478L22.8 478.5C45.7 479 91.3 480 137 481.2C182.7 482.3 228.3 483.7 274 477.3C319.7 471 365.3 457 411.2 457C457 457 503 471 548.8 476C594.7 481 640.3 477 686 471C731.7 465 777.3 457 823 453.3C868.7 449.7 914.3 450.3 937.2 450.7L960 451L960 541L937.2 541C914.3 541 868.7 541 823 541C777.3 541 731.7 541 686 541C640.3 541 594.7 541 548.8 541C503 541 457 541 411.2 541C365.3 541 319.7 541 274 541C228.3 541 182.7 541 137 541C91.3 541 45.7 541 22.8 541L0 541Z" fill="#e5b782"></path><path d="M0 513L22.8 509C45.7 505 91.3 497 137 494C182.7 491 228.3 493 274 493.5C319.7 494 365.3 493 411.2 492.8C457 492.7 503 493.3 548.8 490.5C594.7 487.7 640.3 481.3 686 478.2C731.7 475 777.3 475 823 478.2C868.7 481.3 914.3 487.7 937.2 490.8L960 494L960 541L937.2 541C914.3 541 868.7 541 823 541C777.3 541 731.7 541 686 541C640.3 541 594.7 541 548.8 541C503 541 457 541 411.2 541C365.3 541 319.7 541 274 541C228.3 541 182.7 541 137 541C91.3 541 45.7 541 22.8 541L0 541Z" fill="#dfc89a"></path></svg>